<svg width="18" height="18" viewBox="0 0 18 18" fill="none" xmlns="http://www.w3.org/2000/svg">
<path d="M17.0646 13.0278V15.4463C17.0656 15.6708 17.0195 15.893 16.9294 16.0987C16.8392 16.3045 16.7071 16.4891 16.5413 16.6409C16.3755 16.7927 16.1798 16.9082 15.9667 16.9802C15.7536 17.0521 15.5278 17.0788 15.3037 17.0586C12.8182 16.7891 10.4306 15.9414 8.33286 14.5837C6.38119 13.346 4.72652 11.6946 3.48635 9.74681C2.12123 7.64373 1.27169 5.24929 1.00656 2.75749C0.986371 2.53456 1.01292 2.30988 1.0845 2.09775C1.15609 1.88563 1.27115 1.6907 1.42236 1.52538C1.57357 1.36007 1.75761 1.22798 1.96276 1.13754C2.16792 1.0471 2.3897 1.00029 2.61398 1.00008H5.03723C5.42924 0.996228 5.80927 1.13477 6.1065 1.38988C6.40373 1.64499 6.59787 1.99926 6.65273 2.38666C6.75501 3.16061 6.9447 3.92054 7.21816 4.65194C7.32684 4.94048 7.35036 5.25407 7.28594 5.55554C7.22151 5.85701 7.07185 6.13373 6.85467 6.35292L5.82883 7.37673C6.97871 9.39496 8.65309 11.066 10.6753 12.2136L11.7012 11.1898C11.9208 10.9731 12.1981 10.8237 12.5001 10.7594C12.8022 10.6951 13.1164 10.7186 13.4055 10.8271C14.1384 11.1 14.8998 11.2893 15.6753 11.3914C16.0677 11.4466 16.426 11.6438 16.6822 11.9456C16.9384 12.2473 17.0745 12.6325 17.0646 13.0278Z" stroke="white" stroke-width="1.5" stroke-linecap="round" stroke-linejoin="round"/>
</svg>
