<svg width="17" height="19" viewBox="0 0 17 19" fill="none" xmlns="http://www.w3.org/2000/svg">
<path d="M15.5406 8.03852C15.5406 13.505 8.48434 18.1906 8.48434 18.1906C8.48434 18.1906 1.4281 13.505 1.4281 8.03852C1.4281 6.17448 2.17152 4.38679 3.49483 3.06872C4.81813 1.75065 6.61291 1.01016 8.48434 1.01016C10.3558 1.01016 12.1506 1.75065 13.4739 3.06872C14.7972 4.38679 15.5406 6.17448 15.5406 8.03852Z" stroke="white" stroke-width="1.5" stroke-linecap="round" stroke-linejoin="round"/>
<path d="M8.48428 9.99169C9.7833 9.99169 10.8364 8.94279 10.8364 7.64891C10.8364 6.35502 9.7833 5.30612 8.48428 5.30612C7.18527 5.30612 6.1322 6.35502 6.1322 7.64891C6.1322 8.94279 7.18527 9.99169 8.48428 9.99169Z" stroke="white" stroke-width="1.5" stroke-linecap="round" stroke-linejoin="round"/>
</svg>
